0
SECTION
2
HEADER
9
$INSUNITS
70
4
9
$ACADVER
1
AC1014
9
$HANDSEED
5
FFFF
0
ENDSEC
0
SECTION
2
TABLES
0
TABLE
2
VPORT
5
8
100
AcDbSymbolTable
0
ENDTAB
0
TABLE
2
LTYPE
5
5
100
AcDbSymbolTable
0
LTYPE
5
14
100
AcDbSymbolTableRecord
100
AcDbLinetypeTableRecord
2
BYBLOCK
70
0
0
LTYPE
5
15
100
AcDbSymbolTableRecord
100
AcDbLinetypeTableRecord
2
BYLAYER
70
0
0
ENDTAB
0
TABLE
2
LAYER
5
2
100
AcDbSymbolTable
70
2
0
LAYER
5
50
100
AcDbSymbolTableRecord
100
AcDbLayerTableRecord
2
0
70
0
6
CONTINUOUS
0
ENDTAB
0
TABLE
2
STYLE
5
3
100
AcDbSymbolTable
70
1
0
STYLE
5
11
100
AcDbSymbolTableRecord
100
AcDbTextStyleTableRecord
2
STANDARD
70
0
0
ENDTAB
0
TABLE
2
VIEW
5
6
100
AcDbSymbolTable
70
0
0
ENDTAB
0
TABLE
2
UCS
5
7
100
AcDbSymbolTable
70
0
0
ENDTAB
0
TABLE
2
APPID
5
9
100
AcDbSymbolTable
70
2
0
APPID
5
12
100
AcDbSymbolTableRecord
100
AcDbRegAppTableRecord
2
ACAD
70
0
0
ENDTAB
0
TABLE
2
DIMSTYLE
5
A
100
AcDbSymbolTable
70
1
0
ENDTAB
0
TABLE
2
BLOCK_RECORD
5
1
100
AcDbSymbolTable
70
1
0
BLOCK_RECORD
5
1F
100
AcDbSymbolTableRecord
100
AcDbBlockTableRecord
2
*MODEL_SPACE
0
BLOCK_RECORD
5
1B
100
AcDbSymbolTableRecord
100
AcDbBlockTableRecord
2
*PAPER_SPACE
0
ENDTAB
0
ENDSEC
0
SECTION
2
BLOCKS
0
BLOCK
5
20
100
AcDbEntity
100
AcDbBlockBegin
2
*MODEL_SPACE
0
ENDBLK
5
21
100
AcDbEntity
100
AcDbBlockEnd
0
BLOCK
5
1C
100
AcDbEntity
100
AcDbBlockBegin
2
*PAPER_SPACE
0
ENDBLK
5
1D
100
AcDbEntity
100
AcDbBlockEnd
0
ENDSEC
0
SECTION
2
ENTITIES
0
LINE
5
100
100
AcDbEntity
8
0
100
AcDbLine
10
137.13865000000001
20
102.707397
30
0
11
137.22505000000001
21
102.526533
31
0
0
LINE
5
101
100
AcDbEntity
8
0
100
AcDbLine
10
0.35819099999999998
20
49.749714000000012
30
0
11
0.49910100000000007
21
49.920188000000003
31
0
0
LINE
5
102
100
AcDbEntity
8
0
100
AcDbLine
10
107.75575000000002
20
8.6867859999999997
30
0
11
107.62428
21
8.6234859999999998
31
0
0
LINE
5
103
100
AcDbEntity
8
0
100
AcDbLine
10
69.504047999999997
20
13.780866
30
0
11
69.029569999999993
21
13.788866000000002
31
0
0
LINE
5
104
100
AcDbEntity
8
0
100
AcDbLine
10
97.470210000000009
20
109.35750700000001
30
0
11
98.572559999999996
21
109.29098700000003
31
0
0
LINE
5
105
100
AcDbEntity
8
0
100
AcDbLine
10
16.941085999999999
20
0.27849600000000002
30
0
11
16.773143999999998
21
0.39246599999999998
31
0
0
LINE
5
106
100
AcDbEntity
8
0
100
AcDbLine
10
0.4434260000000001
20
29.635893000000003
30
0
11
0.34858400000000006
21
29.941365000000001
31
0
0
LINE
5
107
100
AcDbEntity
8
0
100
AcDbLine
10
70.920148999999995
20
13.660666000000001
30
0
11
70.449742000000001
21
13.716666000000002
31
0
0
LINE
5
108
100
AcDbEntity
8
0
100
AcDbLine
10
0.21001000000000003
20
30.565153000000006
30
0
11
0.16659300000000002
21
30.882047999999998
31
0
0
LINE
5
109
100
AcDbEntity
8
0
100
AcDbLine
10
22.908190000000005
20
51.332796000000009
30
0
11
22.908190000000005
21
108.14288700000003
31
0
0
LINE
5
110
100
AcDbEntity
8
0
100
AcDbLine
10
0.49910100000000007
20
49.920188000000003
30
0
11
0.66979999999999995
21
50.060824000000004
31
0
0
LINE
5
111
100
AcDbEntity
8
0
100
AcDbLine
10
22.727529999999998
20
50.736212999999999
30
0
11
22.826339999999998
21
50.921292999999999
31
0
0
LINE
5
112
100
AcDbEntity
8
0
100
AcDbLine
10
108.17537000000002
20
9.0920260000000006
30
0
11
108.08956999999999
21
8.9696859999999994
31
0
0
LINE
5
113
100
AcDbEntity
8
0
100
AcDbLine
10
50.009031999999998
20
13.056216000000003
30
0
11
17.930142
21
0.21529600000000038
31
0
0
LINE
5
114
100
AcDbEntity
8
0
100
AcDbLine
10
22.933320000000002
20
108.392166
30
0
11
23.005390000000002
21
108.62434499999999
31
0
0
LINE
5
115
100
AcDbEntity
8
0
100
AcDbLine
10
107.98997
20
8.8607860000000009
30
0
11
107.87817000000001
21
8.7661860000000011
31
0
0
LINE
5
116
100
AcDbEntity
8
0
100
AcDbLine
10
69.977574000000004
20
13.756766000000002
30
0
11
69.504047999999997
21
13.780866
31
0
0
LINE
5
117
100
AcDbEntity
8
0
100
AcDbLine
10
69.029569999999993
20
13.788866000000002
30
0
11
53.811
21
13.788866000000002
31
0
0
LINE
5
118
100
AcDbEntity
8
0
100
AcDbLine
10
107.19141999999999
20
8.538786
30
0
11
91.46772
21
8.538786
31
0
0
LINE
5
119
100
AcDbEntity
8
0
100
AcDbLine
10
137.22505000000001
20
102.526533
30
0
11
137.27914999999999
21
102.330634
31
0
0
LINE
5
120
100
AcDbEntity
8
0
100
AcDbLine
10
1.314341
20
50.257490999999995
30
0
11
21.832885000000001
21
50.257490999999995
31
0
0
LINE
5
121
100
AcDbEntity
8
0
100
AcDbLine
10
0.86565900000000018
20
50.167001000000006
30
0
11
1.082049
21
50.234101000000003
31
0
0
LINE
5
122
100
AcDbEntity
8
0
100
AcDbLine
10
99.671340000000015
20
109.18025200000001
30
0
11
100.76524000000001
21
109.02541000000001
31
0
0
LINE
5
123
100
AcDbEntity
8
0
100
AcDbLine
10
16.626006000000004
20
0.53645600000000004
30
0
11
16.504322000000002
21
0.70885600000000004
31
0
0
LINE
5
124
100
AcDbEntity
8
0
100
AcDbLine
10
22.429468
20
50.438150999999998
30
0
11
22.593244000000002
21
50.572437000000008
31
0
0
LINE
5
125
100
AcDbEntity
8
0
100
AcDbLine
10
116.73898999999999
20
23.141326000000003
30
0
11
116.66069
21
23.028396000000001
31
0
0
LINE
5
126
100
AcDbEntity
8
0
100
AcDbLine
10
107.62428
20
8.6234859999999998
30
0
11
107.48535000000001
21
8.5771859999999993
31
0
0
LINE
5
127
100
AcDbEntity
8
0
100
AcDbLine
10
22.244388000000001
20
50.339340999999997
30
0
11
22.429468
21
50.438150999999998
31
0
0
LINE
5
128
100
AcDbEntity
8
0
100
AcDbLine
10
52.354501000000006
20
13.684666
30
0
11
51.875038000000011
21
13.604066000000001
31
0
0
LINE
5
129
100
AcDbEntity
8
0
100
AcDbLine
10
71.854061999999999
20
13.501066000000002
30
0
11
71.388390000000015
21
13.588766000000001
31
0
0
LINE
5
130
100
AcDbEntity
8
0
100
AcDbLine
10
0.13229399999999999
20
31.522289000000004
30
0
11
0.16049400000000003
21
49.105489000000006
31
0
0
LINE
5
131
100
AcDbEntity
8
0
100
AcDbLine
10
0.25169999999999998
20
49.55402500000001
30
0
11
0.35819099999999998
21
49.749714000000012
31
0
0
LINE
5
132
100
AcDbEntity
8
0
100
AcDbLine
10
0.14063399999999998
20
31.201331000000003
30
0
11
0.13229399999999999
21
31.522289000000004
31
0
0
LINE
5
133
100
AcDbEntity
8
0
100
AcDbLine
10
136.26528000000002
20
25.083216000000004
30
0
11
117.55221
21
23.577686
31
0
0
LINE
5
134
100
AcDbEntity
8
0
100
AcDbLine
10
136.88139000000001
20
103.009603
30
0
11
137.02309
21
102.869621
31
0
0
LINE
5
135
100
AcDbEntity
8
0
100
AcDbLine
10
51.875038000000011
20
13.604066000000001
30
0
11
51.399948000000002
21
13.500746000000001
31
0
0
LINE
5
136
100
AcDbEntity
8
0
100
AcDbLine
10
136.53189
20
103.20841700000001
30
0
11
136.71663999999998
21
103.12373700000002
31
0
0
LINE
5
137
100
AcDbEntity
8
0
100
AcDbLine
10
117.55221
20
23.577686
30
0
11
117.41611
21
23.558485999999998
31
0
0
LINE
5
138
100
AcDbEntity
8
0
100
AcDbLine
10
116.66069
20
23.028396000000001
30
0
11
108.17537000000002
21
9.0920260000000006
31
0
0
LINE
5
139
100
AcDbEntity
8
0
100
AcDbLine
10
17.727914999999999
20
0.15499599999999999
30
0
11
17.523247000000001
21
0.132796
31
0
0
LINE
5
140
100
AcDbEntity
8
0
100
AcDbLine
10
22.887339999999998
20
51.122033999999999
30
0
11
22.908190000000005
21
51.332796000000009
31
0
0
LINE
5
141
100
AcDbEntity
8
0
100
AcDbLine
10
17.125183
20
0.19619600000000001
30
0
11
16.941085999999999
21
0.27849600000000002
31
0
0
LINE
5
142
100
AcDbEntity
8
0
100
AcDbLine
10
51.399948000000002
20
13.500746000000001
30
0
11
50.930041000000003
21
13.374886
31
0
0
LINE
5
143
100
AcDbEntity
8
0
100
AcDbLine
10
1.082049
20
50.234101000000003
30
0
11
1.314341
21
50.257490999999995
31
0
0
LINE
5
144
100
AcDbEntity
8
0
100
AcDbLine
10
50.930041000000003
20
13.374886
30
0
11
50.466132000000002
21
13.226666
31
0
0
LINE
5
145
100
AcDbEntity
8
0
100
AcDbLine
10
117.04041000000002
20
23.410185999999999
30
0
11
116.93007000000001
21
23.332985999999998
31
0
0
LINE
5
146
100
AcDbEntity
8
0
100
AcDbLine
10
90.657873999999993
20
8.5662860000000016
30
0
11
89.852666000000013
21
8.6483860000000021
31
0
0
LINE
5
147
100
AcDbEntity
8
0
100
AcDbLine
10
100.76524000000001
20
109.02541000000001
30
0
11
136.33022
21
103.260047
31
0
0
LINE
5
148
100
AcDbEntity
8
0
100
AcDbLine
10
0.27072600000000002
20
30.251355000000004
30
0
11
0.21001000000000003
21
30.565153000000006
31
0
0
LINE
5
149
100
AcDbEntity
8
0
100
AcDbLine
10
50.466132000000002
20
13.226666
30
0
11
50.009031999999998
21
13.056216000000003
31
0
0
LINE
5
150
100
AcDbEntity
8
0
100
AcDbLine
10
22.826339999999998
20
50.921292999999999
30
0
11
22.887339999999998
21
51.122033999999999
31
0
0
LINE
5
151
100
AcDbEntity
8
0
100
AcDbLine
10
117.15901000000002
20
23.473986
30
0
11
117.04041000000002
21
23.410185999999999
31
0
0
LINE
5
152
100
AcDbEntity
8
0
100
AcDbLine
10
70.449742000000001
20
13.716666000000002
30
0
11
69.977574000000004
21
13.756766000000002
31
0
0
LINE
5
153
100
AcDbEntity
8
0
100
AcDbLine
10
0.68342999999999998
20
29.041349000000004
30
0
11
0.55509399999999998
21
29.335651000000006
31
0
0
LINE
5
154
100
AcDbEntity
8
0
100
AcDbLine
10
23.119431000000002
20
108.83445000000002
30
0
11
23.270468000000001
21
109.01750900000002
31
0
0
LINE
5
155
100
AcDbEntity
8
0
100
AcDbLine
10
23.663631000000002
20
109.282588
30
0
11
23.895809
21
109.35465800000001
31
0
0
LINE
5
156
100
AcDbEntity
8
0
100
AcDbLine
10
21.832885000000001
20
50.257490999999995
30
0
11
22.043647
21
50.278340999999998
31
0
0
LINE
5
157
100
AcDbEntity
8
0
100
AcDbLine
10
53.323293999999997
20
13.777266000000001
30
0
11
52.837524000000009
21
13.742466000000002
31
0
0
LINE
5
158
100
AcDbEntity
8
0
100
AcDbLine
10
22.908190000000005
20
108.14288700000003
30
0
11
22.933320000000002
21
108.392166
31
0
0
LINE
5
159
100
AcDbEntity
8
0
100
AcDbLine
10
16.773143999999998
20
0.39246599999999998
30
0
11
16.626006000000004
21
0.53645600000000004
31
0
0
LINE
5
160
100
AcDbEntity
8
0
100
AcDbLine
10
107.48535000000001
20
8.5771859999999993
30
0
11
107.34054
21
8.5487859999999998
31
0
0
LINE
5
161
100
AcDbEntity
8
0
100
AcDbLine
10
117.41611
20
23.558485999999998
30
0
11
117.28464000000001
21
23.523685999999998
31
0
0
LINE
5
162
100
AcDbEntity
8
0
100
AcDbLine
10
137.27914999999999
20
102.330634
30
0
11
137.29794999999999
21
102.123304
31
0
0
LINE
5
163
100
AcDbEntity
8
0
100
AcDbLine
10
52.837524000000009
20
13.742466000000002
30
0
11
52.354501000000006
21
13.684666
31
0
0
LINE
5
164
100
AcDbEntity
8
0
100
AcDbLine
10
88.267209999999992
20
8.9750859999999992
30
0
11
72.776080000000007
21
13.278296000000001
31
0
0
LINE
5
165
100
AcDbEntity
8
0
100
AcDbLine
10
0.18425800000000003
20
49.337742999999996
30
0
11
0.25169999999999998
21
49.55402500000001
31
0
0
LINE
5
166
100
AcDbEntity
8
0
100
AcDbLine
10
3.0298840000000005
20
24.051366000000005
30
0
11
2.984734
21
24.137865999999999
31
0
0
LINE
5
167
100
AcDbEntity
8
0
100
AcDbLine
10
117.28464000000001
20
23.523685999999998
30
0
11
117.15901000000002
21
23.473986
31
0
0
LINE
5
168
100
AcDbEntity
8
0
100
AcDbLine
10
0.34858400000000006
20
29.941365000000001
30
0
11
0.27072600000000002
21
30.251355000000004
31
0
0
LINE
5
169
100
AcDbEntity
8
0
100
AcDbLine
10
0.16659300000000002
20
30.882047999999998
30
0
11
0.14063399999999998
21
31.201331000000003
31
0
0
LINE
5
170
100
AcDbEntity
8
0
100
AcDbLine
10
22.593244000000002
20
50.572437000000008
30
0
11
22.727529999999998
21
50.736212999999999
31
0
0
LINE
5
171
100
AcDbEntity
8
0
100
AcDbLine
10
72.776080000000007
20
13.278296000000001
30
0
11
72.316760000000002
21
13.397535999999999
31
0
0
LINE
5
172
100
AcDbEntity
8
0
100
AcDbLine
10
89.054856999999998
20
8.7847860000000004
30
0
11
88.267209999999992
21
8.9750859999999992
31
0
0
LINE
5
173
100
AcDbEntity
8
0
100
AcDbLine
10
23.005390000000002
20
108.62434499999999
30
0
11
23.119431000000002
21
108.83445000000002
31
0
0
LINE
5
174
100
AcDbEntity
8
0
100
AcDbLine
10
22.043647
20
50.278340999999998
30
0
11
22.244388000000001
21
50.339340999999997
31
0
0
LINE
5
175
100
AcDbEntity
8
0
100
AcDbLine
10
17.320786999999999
20
0.147096
30
0
11
17.125183
21
0.19619600000000001
31
0
0
LINE
5
176
100
AcDbEntity
8
0
100
AcDbLine
10
23.270468000000001
20
109.01750900000002
30
0
11
23.453525000000003
21
109.16854600000001
31
0
0
LINE
5
177
100
AcDbEntity
8
0
100
AcDbLine
10
116.93007000000001
20
23.332985999999998
30
0
11
116.82919
21
23.243085999999998
31
0
0
LINE
5
178
100
AcDbEntity
8
0
100
AcDbLine
10
107.34054
20
8.5487859999999998
30
0
11
107.19141999999999
21
8.538786
31
0
0
LINE
5
179
100
AcDbEntity
8
0
100
AcDbLine
10
0.16049400000000003
20
49.105489000000006
30
0
11
0.18425800000000003
21
49.337742999999996
31
0
0
LINE
5
180
100
AcDbEntity
8
0
100
AcDbLine
10
98.572559999999996
20
109.29098700000003
30
0
11
99.671340000000015
21
109.18025200000001
31
0
0
LINE
5
181
100
AcDbEntity
8
0
100
AcDbLine
10
116.82919
20
23.243085999999998
30
0
11
116.73898999999999
21
23.141326000000003
31
0
0
LINE
5
182
100
AcDbEntity
8
0
100
AcDbLine
10
17.523247000000001
20
0.132796
30
0
11
17.320786999999999
21
0.147096
31
0
0
LINE
5
183
100
AcDbEntity
8
0
100
AcDbLine
10
136.33022
20
103.260047
30
0
11
136.53189
21
103.20841700000001
31
0
0
LINE
5
184
100
AcDbEntity
8
0
100
AcDbLine
10
136.71663999999998
20
103.12373700000002
30
0
11
136.88139000000001
21
103.009603
31
0
0
LINE
5
185
100
AcDbEntity
8
0
100
AcDbLine
10
23.453525000000003
20
109.16854600000001
30
0
11
23.663631000000002
21
109.282588
31
0
0
LINE
5
186
100
AcDbEntity
8
0
100
AcDbLine
10
91.46772
20
8.538786
30
0
11
90.657873999999993
21
8.5662860000000016
31
0
0
LINE
5
187
100
AcDbEntity
8
0
100
AcDbLine
10
23.895809
20
109.35465800000001
30
0
11
24.145088000000001
21
109.37978799999999
31
0
0
LINE
5
188
100
AcDbEntity
8
0
100
AcDbLine
10
71.388390000000015
20
13.588766000000001
30
0
11
70.920148999999995
21
13.660666000000001
31
0
0
LINE
5
189
100
AcDbEntity
8
0
100
AcDbLine
10
137.02309
20
102.869621
30
0
11
137.13865000000001
21
102.707397
31
0
0
LINE
5
190
100
AcDbEntity
8
0
100
AcDbLine
10
107.87817000000001
20
8.7661860000000011
30
0
11
107.75575000000002
21
8.6867859999999997
31
0
0
LINE
5
191
100
AcDbEntity
8
0
100
AcDbLine
10
89.852666000000013
20
8.6483860000000021
30
0
11
89.054856999999998
21
8.7847860000000004
31
0
0
LINE
5
192
100
AcDbEntity
8
0
100
AcDbLine
10
108.08956999999999
20
8.9696859999999994
30
0
11
107.98997
21
8.8607860000000009
31
0
0
LINE
5
193
100
AcDbEntity
8
0
100
AcDbLine
10
0.66979999999999995
20
50.060824000000004
30
0
11
0.86565900000000018
21
50.167001000000006
31
0
0
LINE
5
194
100
AcDbEntity
8
0
100
AcDbLine
10
53.811
20
13.788866000000002
30
0
11
53.323293999999997
21
13.777266000000001
31
0
0
LINE
5
195
100
AcDbEntity
8
0
100
AcDbLine
10
72.316760000000002
20
13.397535999999999
30
0
11
71.854061999999999
21
13.501066000000002
31
0
0
LINE
5
196
100
AcDbEntity
8
0
100
AcDbLine
10
2.984734
20
24.137865999999999
30
0
11
0.68342999999999998
21
29.041349000000004
31
0
0
LINE
5
197
100
AcDbEntity
8
0
100
AcDbLine
10
0.55509399999999998
20
29.335651000000006
30
0
11
0.4434260000000001
21
29.635893000000003
31
0
0
LINE
5
198
100
AcDbEntity
8
0
100
AcDbLine
10
96.365633000000003
20
109.37970700000001
30
0
11
97.470210000000009
21
109.35750700000001
31
0
0
LINE
5
199
100
AcDbEntity
8
0
100
AcDbLine
10
17.930142
20
0.21529600000000038
30
0
11
17.727914999999999
21
0.15499599999999999
31
0
0
LWPOLYLINE
5
200
100
AcDbEntity
8
0
100
AcDbPolyline
90
4
70
1
43
0.0
10
92.04028000000001
20
25.596385999999999
10
106.04076000000001
20
25.596385999999999
10
106.04076000000001
20
11.598446000000003
10
92.04028000000001
20
11.598446000000003
0
LWPOLYLINE
5
201
100
AcDbEntity
8
0
100
AcDbPolyline
90
4
70
1
43
0.0
10
48.293858000000007
20
15.129045999999999
10
34.770898000000003
20
11.504466000000003
10
31.148858000000001
20
25.027426000000006
10
44.671818000000002
20
28.652003999999998
0
LWPOLYLINE
5
202
100
AcDbEntity
8
0
100
AcDbPolyline
90
4
70
1
43
0.0
10
19.555332
20
48.131574999999998
10
19.555332
20
36.145752000000002
10
3.8945550000000004
20
36.145752000000002
10
3.8945550000000004
20
48.131574999999998
0
LINE
5
203
100
AcDbEntity
8
0
100
AcDbLine
10
136.48277000000002
20
25.121766000000001
30
0
11
136.26536000000002
21
25.083166000000006
31
0
0
LWPOLYLINE
5
204
100
AcDbEntity
8
0
100
AcDbPolyline
90
4
70
1
43
0.0
10
77.440359999999998
20
88.19722400000002
10
77.440359999999998
20
74.196743999999995
10
63.442420000000006
20
74.196743999999995
10
63.442420000000006
20
88.19722400000002
0
LWPOLYLINE
5
205
100
AcDbEntity
8
0
100
AcDbPolyline
90
4
70
1
43
0.0
10
63.442420000000006
20
50.097221000000012
10
77.440359999999998
20
50.097221000000012
10
77.440359999999998
20
36.096740999999994
10
63.442420000000006
20
36.096740999999994
0
LWPOLYLINE
5
206
100
AcDbEntity
8
0
100
AcDbPolyline
90
4
70
1
43
0.0
10
58.342100000000002
20
53.798003000000001
10
44.341619999999999
20
53.798003000000001
10
44.341619999999999
20
67.79848299999999
10
58.342100000000002
20
67.79848299999999
0
LWPOLYLINE
5
207
100
AcDbEntity
8
0
100
AcDbPolyline
90
4
70
1
43
0.0
10
82.441620000000015
20
34.697203000000002
10
82.441620000000015
20
48.697683000000005
10
96.442100000000011
20
48.697683000000005
10
96.442100000000011
20
34.697203000000002
0
LWPOLYLINE
5
208
100
AcDbEntity
8
0
100
AcDbPolyline
90
4
70
1
43
0.0
10
58.342109999999998
20
105.89844900000001
10
58.342109999999998
20
91.897968999999989
10
44.341630000000009
20
91.897968999999989
10
44.341630000000009
20
105.89844900000001
0
LWPOLYLINE
5
209
100
AcDbEntity
8
0
100
AcDbPolyline
90
4
70
1
43
0.0
10
115.54036000000002
20
87.097403
10
101.54241999999999
20
87.097403
10
101.54241999999999
20
101.097883
10
115.54036000000002
20
101.097883
0
LWPOLYLINE
5
210
100
AcDbEntity
8
0
100
AcDbPolyline
90
4
70
1
43
0.0
10
96.442100000000011
20
53.798003000000001
10
82.441620000000015
20
53.798003000000001
10
82.441620000000015
20
67.79848299999999
10
96.442100000000011
20
67.79848299999999
0
LINE
5
211
100
AcDbEntity
8
0
100
AcDbLine
10
137.14765
20
25.617236000000002
30
0
11
137.01974000000001
21
25.450416000000004
31
0
0
LWPOLYLINE
5
212
100
AcDbEntity
8
0
100
AcDbPolyline
90
4
70
1
43
0.0
10
72.942019999999999
20
15.746266000000002
10
72.942019999999999
20
29.746743000000002
10
86.942499999999995
20
29.746743000000002
10
86.942499999999995
20
15.746266000000002
0
LWPOLYLINE
5
213
100
AcDbEntity
8
0
100
AcDbPolyline
90
4
70
1
43
0.0
10
115.54036000000002
20
48.997403000000013
10
101.54241999999999
20
48.997403000000013
10
101.54241999999999
20
62.997882999999995
10
115.54036000000002
20
62.997882999999995
0
LWPOLYLINE
5
214
100
AcDbEntity
8
0
100
AcDbPolyline
90
4
70
1
43
0.0
10
39.340359999999997
20
46.396442
10
39.340359999999997
20
32.398502000000001
10
25.342420000000004
20
32.398502000000001
10
25.342420000000004
20
46.396442
0
LWPOLYLINE
5
215
100
AcDbEntity
8
0
100
AcDbPolyline
90
4
70
1
43
0.0
10
39.34037
20
89.497668999999988
10
25.34243
20
89.497668999999988
10
25.34243
20
103.498149
10
39.34037
20
103.498149
0
LWPOLYLINE
5
216
100
AcDbEntity
8
0
100
AcDbPolyline
90
4
70
1
43
0.0
10
67.841700000000003
20
15.746266000000002
10
53.841219999999993
20
15.746266000000002
10
53.841219999999993
20
29.746743000000002
10
67.841700000000003
20
29.746743000000002
0
LINE
5
217
100
AcDbEntity
8
0
100
AcDbLine
10
137.32495
20
26.231916000000002
30
0
11
137.30404999999999
21
26.012105999999999
31
0
0
LWPOLYLINE
5
218
100
AcDbEntity
8
0
100
AcDbPolyline
90
4
70
1
43
0.0
10
77.440359999999998
20
93.287384000000003
10
63.442420000000006
20
93.287384000000003
10
63.442420000000006
20
107.28786399999998
10
77.440359999999998
20
107.28786399999998
0
LWPOLYLINE
5
219
100
AcDbEntity
8
0
100
AcDbPolyline
90
4
70
1
43
0.0
10
27.364259000000004
20
13.864126000000001
10
15.238299
20
6.8664259999999997
10
8.2380589999999998
20
18.989846
10
20.364018999999999
20
25.990085999999998
0
LWPOLYLINE
5
220
100
AcDbEntity
8
0
100
AcDbPolyline
90
4
70
1
43
0.0
10
120.59241999999999
20
28.497062
10
120.59241999999999
20
42.497541999999996
10
134.59036
20
42.497541999999996
10
134.59036
20
28.497062
0
LWPOLYLINE
5
221
100
AcDbEntity
8
0
100
AcDbPolyline
90
4
70
1
43
0.0
10
120.54161999999999
20
80.696601999999999
10
134.5421
20
80.696601999999999
10
134.5421
20
66.698661999999999
10
120.54161999999999
20
66.698661999999999
0
LWPOLYLINE
5
222
100
AcDbEntity
8
0
100
AcDbPolyline
90
4
70
1
43
0.0
10
115.54036000000002
20
82.197743000000003
10
115.54036000000002
20
68.197263000000007
10
101.54241999999999
20
68.197263000000007
10
101.54241999999999
20
82.197743000000003
0
LINE
5
223
100
AcDbEntity
8
0
100
AcDbLine
10
136.86376000000001
20
25.309486000000003
30
0
11
136.68350000000001
21
25.198566000000003
31
0
0
LWPOLYLINE
5
224
100
AcDbEntity
8
0
100
AcDbPolyline
90
4
70
1
43
0.0
10
96.442100000000011
20
105.89848300000001
10
96.442100000000011
20
91.898003000000003
10
82.441620000000015
20
91.898003000000003
10
82.441620000000015
20
105.89848300000001
0
LWPOLYLINE
5
225
100
AcDbEntity
8
0
100
AcDbPolyline
90
4
70
1
43
0.0
10
25.342420000000004
20
70.396901999999997
10
25.342420000000004
20
84.397381999999993
10
39.340359999999997
20
84.397381999999993
10
39.340359999999997
20
70.396901999999997
0
LWPOLYLINE
5
226
100
AcDbEntity
8
0
100
AcDbPolyline
90
4
70
1
43
0.0
10
120.54161999999999
20
61.496742000000005
10
134.5421
20
61.496742000000005
10
134.5421
20
47.496262000000009
10
120.54161999999999
20
47.496262000000009
0
LWPOLYLINE
5
227
100
AcDbEntity
8
0
100
AcDbPolyline
90
4
70
1
43
0.0
10
82.441620000000015
20
72.896263000000005
10
82.441620000000015
20
86.896743000000001
10
96.442100000000011
20
86.896743000000001
10
96.442100000000011
20
72.896263000000005
0
LWPOLYLINE
5
228
100
AcDbEntity
8
0
100
AcDbPolyline
90
4
70
1
43
0.0
10
120.54161999999999
20
85.596261999999996
10
120.54161999999999
20
99.59674200000002
10
134.5421
20
99.59674200000002
10
134.5421
20
85.596261999999996
0
LWPOLYLINE
5
229
100
AcDbEntity
8
0
100
AcDbPolyline
90
4
70
1
43
0.0
10
44.341619999999999
20
86.797682999999992
10
58.342100000000002
20
86.797682999999992
10
58.342100000000002
20
72.797202999999996
10
44.341619999999999
20
72.797202999999996
0
LWPOLYLINE
5
230
100
AcDbEntity
8
0
100
AcDbPolyline
90
4
70
1
43
0.0
10
101.54241999999999
20
43.998683000000007
10
115.54036000000002
20
43.998683000000007
10
115.54036000000002
20
29.998203000000004
10
101.54241999999999
20
29.998203000000004
0
LINE
5
231
100
AcDbEntity
8
0
100
AcDbLine
10
136.68350000000001
20
25.198566000000003
30
0
11
136.48277000000002
21
25.121766000000001
31
0
0
LWPOLYLINE
5
232
100
AcDbEntity
8
0
100
AcDbPolyline
90
4
70
1
43
0.0
10
44.341619999999999
20
34.697203000000002
10
44.341619999999999
20
48.697683000000005
10
58.342100000000002
20
48.697683000000005
10
58.342100000000002
20
34.697203000000002
0
LINE
5
233
100
AcDbEntity
8
0
100
AcDbLine
10
137.01974000000001
20
25.450416000000004
30
0
11
136.86376000000001
21
25.309486000000003
31
0
0
LWPOLYLINE
5
234
100
AcDbEntity
8
0
100
AcDbPolyline
90
4
70
1
43
0.0
10
77.440359999999998
20
69.096423999999999
10
77.440359999999998
20
55.098483999999999
10
63.442420000000006
20
55.098483999999999
10
63.442420000000006
20
69.096423999999999
0
LINE
5
235
100
AcDbEntity
8
0
100
AcDbLine
10
137.30404999999999
20
26.012105999999999
30
0
11
137.24365
21
25.805836000000003
31
0
0
LWPOLYLINE
5
236
100
AcDbEntity
8
0
100
AcDbPolyline
90
4
70
1
43
0.0
10
39.340359999999997
20
51.39770200000001
10
25.342420000000004
20
51.39770200000001
10
25.342420000000004
20
65.398181999999991
10
39.340359999999997
20
65.398181999999991
0
LINE
5
237
100
AcDbEntity
8
0
100
AcDbLine
10
136.26536000000002
20
25.083166000000006
30
0
11
136.26528000000002
21
25.083216000000004
31
0
0
LINE
5
238
100
AcDbEntity
8
0
100
AcDbLine
10
137.24365
20
25.805836000000003
30
0
11
137.14765
21
25.617236000000002
31
0
0
LINE
5
239
100
AcDbEntity
8
0
100
AcDbLine
10
144.81144905069942
20
87.599170286609393
30
0
11
138.61359588504729
21
85.317287027698342
31
0
0
LINE
5
240
100
AcDbEntity
8
0
100
AcDbLine
10
144.81144905069942
20
40.49995987437417
30
0
11
138.61743026707751
21
42.817836006382763
31
0
0
LINE
5
241
100
AcDbEntity
8
0
100
AcDbLine
10
144.82165316421316
20
30.499970286778254
30
0
11
138.62708468875093
21
28.193633976639148
31
0
0
LINE
5
242
100
AcDbEntity
8
0
100
AcDbLine
10
27.341415008361043
20
116.87977880729525
30
0
11
24.678518881772238
21
109.70579382114254
31
0
0
LINE
5
243
100
AcDbEntity
8
0
100
AcDbLine
10
37.341415008361054
20
116.87977880729525
30
0
11
39.641241471043436
21
110.68380385170298
31
0
0
LINE
5
244
100
AcDbEntity
8
0
100
AcDbLine
10
1.3436843945060495
20
11.97048650121744
30
0
11
5.5603004888405501
21
17.060220676378584
31
0
0
LINE
5
245
100
AcDbEntity
8
0
100
AcDbLine
10
6.3430258775244122
20
3.3098523017969534
30
0
11
12.858901335586463
21
4.4156162591218049
31
0
0
LINE
5
246
100
AcDbEntity
8
0
100
AcDbLine
10
24.145088000000001
20
109.37978799999999
30
0
11
24.209768866624209
21
109.37978792745623
31
0
0
LINE
5
247
100
AcDbEntity
8
0
100
AcDbLine
10
41.5162414104405
20
109.37976851713088
30
0
11
96.365633000000003
21
109.37970700000001
31
0
0
LINE
5
248
100
AcDbEntity
8
0
100
AcDbLine
10
144.81144905069942
20
97.599170286609393
30
0
11
138.61084243122423
21
99.867979858619762
31
0
0
LINE
5
249
100
AcDbEntity
8
0
100
AcDbLine
10
137.29794999999999
20
102.123304
30
0
11
137.29808441719999
21
101.74548518972034
31
0
0
LINE
5
250
100
AcDbEntity
8
0
100
AcDbLine
10
137.30459708190298
20
83.439738378980977
30
0
11
137.31838304283161
21
44.690267646131687
31
0
0
LINE
5
251
100
AcDbEntity
8
0
100
AcDbLine
10
137.3249191548523
20
26.318615298961486
30
0
11
137.32495
21
26.231916000000002
31
0
0
LINE
5
252
100
AcDbEntity
8
0
100
AcDbLine
10
16.504322000000002
20
0.70885600000000004
30
0
11
14.925650072848502
21
3.4436762014995423
31
0
0
LINE
5
253
100
AcDbEntity
8
0
100
AcDbLine
10
5.7525968314286899
20
19.335497410199523
30
0
11
3.0073090000000002
21
24.094616000000002
31
0
0
ARC
5
254
100
AcDbEntity
8
0
100
AcDbCircle
10
5.4507008178499108
20
8.5680079130661149
30
0
40
5.333333333333333
210
0
220
0
230
1
100
AcDbArc
50
140.35977818866058
51
279.63150857602483
0
ARC
5
255
100
AcDbEntity
8
0
100
AcDbCircle
10
142.93967433268335
20
35.498049892215924
30
0
40
5.3406595158854966
210
0
220
0
230
1
100
AcDbArc
50
-69.366617375916618
51
69.483547984687178
0
ARC
5
256
100
AcDbEntity
8
0
100
AcDbCircle
10
142.98194291424787
20
92.599170286609393
30
0
40
5.3241987851050272
210
0
220
0
230
1
100
AcDbArc
50
-69.90236509540243
51
69.902365095402445
0
ARC
5
257
100
AcDbEntity
8
0
100
AcDbCircle
10
32.341415008361047
20
115.02383951293601
30
0
40
5.33333954144556
210
0
220
-0
230
1
100
AcDbArc
50
20.364314482923827
51
159.63568551707618
0
CIRCLE
5
258
100
AcDbEntity
8
0
100
AcDbCircle
10
32.341415008361047
20
115.02383951293601
30
0
40
2.7500000000000036
210
0
220
0
230
1
0
CIRCLE
5
259
100
AcDbEntity
8
0
100
AcDbCircle
10
142.98194291424787
20
92.599170286609393
30
0
40
2.7500000000000036
210
0
220
0
230
1
0
CIRCLE
5
260
100
AcDbEntity
8
0
100
AcDbCircle
10
142.93967433268335
20
35.498049892215924
30
0
40
2.7500000000000036
210
0
220
0
230
1
0
CIRCLE
5
261
100
AcDbEntity
8
0
100
AcDbCircle
10
5.4507008178499108
20
8.5680079130661149
30
0
40
2.75
210
0
220
0
230
1
0
ARC
5
262
100
AcDbEntity
8
0
100
AcDbCircle
10
24.209769427406439
20
109.87978792745595
30
0
40
0.5000000000000373
210
0
220
0
230
1
100
AcDbArc
50
269.99993573909006
51
339.63568551707328
0
ARC
5
263
100
AcDbEntity
8
0
100
AcDbCircle
10
41.516243653569482
20
111.37976851712956
30
0
40
1.9999999999999452
210
0
220
0
230
1
100
AcDbArc
50
200.36395512908408
51
269.99993573908819
0
ARC
5
264
100
AcDbEntity
8
0
100
AcDbCircle
10
139.29808429062658
20
101.74619673286122
30
0
40
2.0000000000000244
210
0
220
0
230
1
100
AcDbArc
50
180.02038420987535
51
249.90236509540171
0
ARC
5
265
100
AcDbEntity
8
0
100
AcDbCircle
10
139.30459695532957
20
83.440449922121843
30
0
40
2.0000000000000089
210
0
220
0
230
1
100
AcDbArc
50
110.21235327984587
51
180.02038420987535
0
ARC
5
266
100
AcDbEntity
8
0
100
AcDbCircle
10
139.31838291625817
20
44.690979189272539
30
0
40
1.9999999999999709
210
0
220
0
230
1
100
AcDbArc
50
180.02038420989322
51
249.48354798468827
0
ARC
5
267
100
AcDbEntity
8
0
100
AcDbCircle
10
139.32491902827883
20
26.319326842102377
30
0
40
1.9999999999999549
210
0
220
0
230
1
100
AcDbArc
50
110.42109868120605
51
180.02038420989322
0
ARC
5
268
100
AcDbEntity
8
0
100
AcDbCircle
10
13.193523232964402
20
2.4438079048958654
30
0
40
2.0000000000000049
210
0
220
-0
230
1
100
AcDbArc
50
29.995643382342784
51
99.631508576024871
0
ARC
5
269
100
AcDbEntity
8
0
100
AcDbCircle
10
4.0201693300866008
20
18.336150146935335
30
0
40
2.0000000000000036
210
0
220
0
230
1
100
AcDbArc
50
-39.640221811339515
51
29.97840999058554
0
ENDSEC
0
SECTION
2
OBJECTS
0
DICTIONARY
5
C
100
AcDbDictionary
3
ACAD_GROUP
350
D
3
ACAD_MLINESTYLE
350
17
0
DICTIONARY
5
D
100
AcDbDictionary
0
DICTIONARY
5
1A
330
C
100
AcDbDictionary
0
DICTIONARY
5
17
100
AcDbDictionary
0
ENDSEC
0
EOF
